<svg id="faa87db1-40a1-4e00-ad64-c5edc535e91d" data-name="Layer 1" xmlns="http://www.w3.org/2000/svg" viewBox="0 0 241.35 171.06"><path d="M306,361a1.75,1.75,0,0,1-.08-1.06,1.06,1.06,0,0,1,.51-.66,2.52,2.52,0,0,1,1-.32,8.93,8.93,0,0,1,1.32-.09l7.65.56a1.47,1.47,0,0,1,1.29.4,1.31,1.31,0,0,1,.3,1,1.59,1.59,0,0,1-.49,1,1.22,1.22,0,0,1-1.1.34l-7.69-.42a11.8,11.8,0,0,0,1.25,3.8,11.35,11.35,0,0,0,2.17,2.87,9.67,9.67,0,0,0,2.74,1.85,8.48,8.48,0,0,0,2.95.74,6.33,6.33,0,0,0,2.8-.45,5.85,5.85,0,0,0,2.36-1.72c-.17-1-.35-2.31-.53-3.8s-.33-3.08-.45-4.8-.19-3.5-.23-5.35,0-3.67.11-5.44a44,44,0,0,1,.61-5.07,20.61,20.61,0,0,1,1.23-4.27,9,9,0,0,1,2-3,4.61,4.61,0,0,1,2.91-1.27,3.34,3.34,0,0,1,2.83,1A7.37,7.37,0,0,1,333,340a18.92,18.92,0,0,1,.57,4.78,47.16,47.16,0,0,1-.31,5.7,56.89,56.89,0,0,1-1,6q-.71,3-1.6,5.73a33,33,0,0,1-2,4.8,13.92,13.92,0,0,1-2.19,3.25c.11.59.26,1.44.45,2.53s.43,2.26.74,3.5A24.84,24.84,0,0,0,328.9,380a9.47,9.47,0,0,0,1.93,3,5.43,5.43,0,0,0,2.83,1.53,6.21,6.21,0,0,0,3.91-.76,1,1,0,0,1,.87.14,1.51,1.51,0,0,1,.57.73,1.46,1.46,0,0,1,0,1,1.68,1.68,0,0,1-.81.92,9.41,9.41,0,0,1-5.37.89,7,7,0,0,1-4-2.38,16.83,16.83,0,0,1-3-5.27,46.29,46.29,0,0,1-2-7.77,6.65,6.65,0,0,1-2.82,1.66,8.91,8.91,0,0,1-3.55.31,11.51,11.51,0,0,1-3.78-1.08,12.19,12.19,0,0,1-3.52-2.51,14.08,14.08,0,0,1-2.74-3.95A15.91,15.91,0,0,1,306,361Zm22.6-22a2.79,2.79,0,0,0-2.38,1.77,14.61,14.61,0,0,0-1.31,4.41,42.44,42.44,0,0,0-.49,5.93q-.08,3.22.08,6.29c.1,2,.24,3.88.41,5.52a35.29,35.29,0,0,0,.51,3.61,9.32,9.32,0,0,0,1.46-2.36,26.62,26.62,0,0,0,1.38-3.69c.43-1.41.81-2.91,1.17-4.51s.64-3.19.87-4.78.37-3.11.45-4.58a27.32,27.32,0,0,0-.07-3.91A7.68,7.68,0,0,0,330,340,1.56,1.56,0,0,0,328.56,339Z" transform="translate(-239.71 -274.47)" fill="#050505"/><path d="M336.93,354a2.07,2.07,0,0,1-.4-.75,1.87,1.87,0,0,1-.09-.87,1.44,1.44,0,0,1,.34-.74,1.21,1.21,0,0,1,.87-.36,3,3,0,0,1,2.08,1.1,17.5,17.5,0,0,1,2.15,2.83c.72,1.14,1.43,2.4,2.12,3.76l2,3.9c.64,1.25,1.24,2.35,1.8,3.32a7.61,7.61,0,0,0,1.49,2,24.18,24.18,0,0,0,.3-4.52c0-1.69-.11-3.37-.24-5.06s-.27-3.27-.42-4.76-.25-2.69-.28-3.63a1,1,0,0,1,.3-.78.92.92,0,0,1,.7-.26,1.67,1.67,0,0,1,.85.36,2.39,2.39,0,0,1,.74,1.07q0,.42.09,1.59c.06.78.13,1.72.23,2.82s.19,2.31.28,3.61.14,2.62.17,3.93,0,2.59,0,3.83a26,26,0,0,1-.3,3.25,7.15,7.15,0,0,1-.7,2.23,1.29,1.29,0,0,1-1.23.78,2,2,0,0,1-1.6-.76,11.81,11.81,0,0,1-1.65-2.28c-.55-.94-1.12-2-1.7-3.2s-1.16-2.36-1.74-3.51-1.16-2.2-1.72-3.16a10.77,10.77,0,0,0-1.7-2.25v15.8a1.17,1.17,0,0,1-.53.83,1.48,1.48,0,0,1-1,.21,1.73,1.73,0,0,1-.93-.43,1.32,1.32,0,0,1-.43-1.08Z" transform="translate(-239.71 -274.47)" fill="#050505"/><path d="M356,371a6.4,6.4,0,0,0,1-.15c.49-.1,1.06-.23,1.7-.4a20.52,20.52,0,0,0,2-.66,14.3,14.3,0,0,0,2-.93,6.89,6.89,0,0,0,1.55-1.21,3.09,3.09,0,0,0,.81-1.53c0-.34-.22-.6-.74-.77a13,13,0,0,0-2-.44l-2.57-.45a14.84,14.84,0,0,1-2.57-.7,6.4,6.4,0,0,1-2-1.17,2.38,2.38,0,0,1-.76-1.95,4.88,4.88,0,0,1,.25-2.3,11.1,11.1,0,0,1,1.3-2.57,14.91,14.91,0,0,1,2.1-2.46,12.2,12.2,0,0,1,2.7-1.95,10.48,10.48,0,0,1,3.06-1.09,6.87,6.87,0,0,1,3.21.17,1.19,1.19,0,0,1,.65.72,2,2,0,0,1,.13,1,1.56,1.56,0,0,1-.32.79.54.54,0,0,1-.63.19,11.41,11.41,0,0,0-3.32.23,10.35,10.35,0,0,0-3.1,1.19,7.31,7.31,0,0,0-2.31,2.15,5.22,5.22,0,0,0-.92,3.06,1.68,1.68,0,0,0,.81,1.5,6.39,6.39,0,0,0,2,.83,22,22,0,0,0,2.65.47,21.86,21.86,0,0,1,2.66.47,6.18,6.18,0,0,1,2,.85,1.78,1.78,0,0,1,.81,1.57,3.18,3.18,0,0,1-.54,2.12,8.64,8.64,0,0,1-1.74,1.93,13.17,13.17,0,0,1-2.48,1.64,26,26,0,0,1-2.83,1.25,17.94,17.94,0,0,1-2.72.81,8.82,8.82,0,0,1-2.18.23,1.39,1.39,0,0,1-1-.57,1,1,0,0,1-.13-.81,1.42,1.42,0,0,1,.49-.72A1.32,1.32,0,0,1,356,371Z" transform="translate(-239.71 -274.47)" fill="#050505"/><path d="M370.36,372.52c0,.08.06-.23.08-1s.05-1.68.07-2.89,0-2.57,0-4.09-.05-3.08-.11-4.66-.15-3.08-.27-4.52-.3-2.69-.49-3.74a1.5,1.5,0,0,1,.49-1,1.55,1.55,0,0,1,.87-.38,1.45,1.45,0,0,1,.85.17.78.78,0,0,1,.42.64,9.39,9.39,0,0,1,3.19-.89,8.93,8.93,0,0,1,3.44.21,5.31,5.31,0,0,1,2.63,1.53,3.7,3.7,0,0,1,.81,3.06,6.91,6.91,0,0,1-1.15,3.14,11.2,11.2,0,0,1-2.25,2.42,17.06,17.06,0,0,1-2.87,1.87c-1,.54-2.06,1-3.08,1.53l.05,8.71a.9.9,0,0,1-.47.68,1.9,1.9,0,0,1-.94.27,1.5,1.5,0,0,1-.91-.23A.84.84,0,0,1,370.36,372.52Zm2.46-18.82a15.35,15.35,0,0,0-.08,1.72c0,.72,0,1.45,0,2.19s0,1.41.08,2,.08,1,.11,1.21a8.06,8.06,0,0,0,2.29-.66,8.33,8.33,0,0,0,2.17-1.38,7.29,7.29,0,0,0,1.59-2,4.46,4.46,0,0,0,.58-2.33A1.27,1.27,0,0,0,379,353a4,4,0,0,0-1.91-.38,10,10,0,0,0-2.36.34A8.62,8.62,0,0,0,372.82,353.7Z" transform="translate(-239.71 -274.47)" fill="#050505"/><path d="M385.57,353.53a1.39,1.39,0,0,1-1.15-.53,2,2,0,0,1-.45-1.15,1.71,1.71,0,0,1,.34-1.1,1.31,1.31,0,0,1,1.21-.45,1.6,1.6,0,0,1,1.19.49,1.86,1.86,0,0,1,.53,1.11,1.52,1.52,0,0,1-.31,1.12A1.61,1.61,0,0,1,385.57,353.53Zm-1.32,19.8c.08-.85.15-1.95.19-3.3s.06-2.78.06-4.31,0-3.07-.06-4.63-.12-3-.23-4.29c-.15-.17-.08-.43.19-.78a2.28,2.28,0,0,1,1-.77,1.22,1.22,0,0,1,1.1.07c.35.19.54.75.57,1.65s.14,2.21.15,3.49,0,2.59,0,4,0,2.77,0,4.18.06,2.79.15,4.12a1.2,1.2,0,0,1-.53.87,1.91,1.91,0,0,1-.87.26,2.54,2.54,0,0,1-.94-.15A2.4,2.4,0,0,1,384.25,373.33Z" transform="translate(-239.71 -274.47)" fill="#050505"/><path d="M392.32,373a1.72,1.72,0,0,1-1.61.89,1.11,1.11,0,0,1-.79-.43,1.81,1.81,0,0,1-.28-1.23,19.22,19.22,0,0,0,.32-2.59c.07-1,.11-2.12.11-3.31s0-2.42-.07-3.7-.07-2.52-.1-3.74-.07-2.36-.11-3.44-.05-2,0-2.84a2,2,0,0,1,.38-1.09,2.55,2.55,0,0,1,.75-.66,1.17,1.17,0,0,1,.78-.14.6.6,0,0,1,.51.48l.13,1.75c.43-.26.95-.55,1.57-.87a17.5,17.5,0,0,1,2-.9,13,13,0,0,1,2.12-.61,4.38,4.38,0,0,1,1.91,0,2.37,2.37,0,0,1,1.38.91,3.42,3.42,0,0,1,.53,2.1,3.93,3.93,0,0,1-.29,2.06,7.47,7.47,0,0,1-1.13,1.85,9.6,9.6,0,0,1-1.59,1.53,17,17,0,0,1-1.7,1.15,10.31,10.31,0,0,1-1.44.7,1.5,1.5,0,0,1-.81.15,2.8,2.8,0,0,0,.38.74,8.21,8.21,0,0,0,1.45,1.57,27.12,27.12,0,0,0,3,2.27,40.09,40.09,0,0,0,5,2.85c.37.2.56.43.57.7a.93.93,0,0,1-.33.75,2.67,2.67,0,0,1-1,.53,2.23,2.23,0,0,1-1.23,0,9,9,0,0,1-2.15-1.32l-2.7-2.12c-1-.77-1.94-1.51-2.95-2.23a12.51,12.51,0,0,0-2.82-1.6Zm-.08-13.47a15.37,15.37,0,0,0,2.25-.72,11.59,11.59,0,0,0,2.12-1.13,7.48,7.48,0,0,0,1.7-1.57,6.11,6.11,0,0,0,1.06-2.06c0-.62-.18-1-.64-1.08a3.33,3.33,0,0,0-1.72.19,11.75,11.75,0,0,0-2.27,1.08,18.22,18.22,0,0,0-2.29,1.64Z" transform="translate(-239.71 -274.47)" fill="#050505"/><path d="M406.85,359.52a3.62,3.62,0,0,1-.92-.91,1.52,1.52,0,0,1-.29-.92,1,1,0,0,1,.4-.74,2,2,0,0,1,1.15-.36c.28-.62.57-1.3.87-2a8.8,8.8,0,0,1,1.12-2A6.3,6.3,0,0,1,410.9,351a5.72,5.72,0,0,1,2.66-.72,3.37,3.37,0,0,1,2.72,1.26,4,4,0,0,1,.7,1.31,5.39,5.39,0,0,1,.23,1.55,4.63,4.63,0,0,1-.72,2.7,5.2,5.2,0,0,1-1.87,1.64,8.23,8.23,0,0,1-2.57.8,17.83,17.83,0,0,1-2.78.22,3.42,3.42,0,0,0-.17,1.14,14.9,14.9,0,0,0,.06,2.06c.07.78.19,1.61.34,2.49a16.65,16.65,0,0,0,.64,2.48,7.25,7.25,0,0,0,1,2,2.62,2.62,0,0,0,1.49,1.06,2.38,2.38,0,0,0,1.4,0,2.67,2.67,0,0,0,1-.61,4.58,4.58,0,0,0,.65-.85,3.15,3.15,0,0,1,.47-.66,1,1,0,0,1,.77-.38.78.78,0,0,1,.55.31,1.83,1.83,0,0,1,.3.68,1.45,1.45,0,0,1,0,.66,4.53,4.53,0,0,1-.71,1.38,5.82,5.82,0,0,1-1.12,1.15,5,5,0,0,1-1.42.76,4.69,4.69,0,0,1-1.6.28,3.93,3.93,0,0,1-3.08-1.46,11,11,0,0,1-2-3.64,20.44,20.44,0,0,1-1-4.63A21.27,21.27,0,0,1,406.85,359.52ZM415,354.3q-.12-1.41-.93-1.62a2.25,2.25,0,0,0-1.72.32,5.74,5.74,0,0,0-1.7,1.59,4.45,4.45,0,0,0-.91,2.21,4.72,4.72,0,0,0,1.44.17,5.75,5.75,0,0,0,1.74-.27,4,4,0,0,0,1.47-.85A2,2,0,0,0,415,354.3Z" transform="translate(-239.71 -274.47)" fill="#050505"/><path d="M336.75,410.8a.76.76,0,0,1-.7-.38,1.86,1.86,0,0,1-.25-.91,2,2,0,0,1,.23-1,1.61,1.61,0,0,1,.85-.77,31.25,31.25,0,0,0,4.16.07c1.22-.07,2.26-.11,3.13-.11a6,6,0,0,1,2.08.3,1.56,1.56,0,0,1,1,1.29,8,8,0,0,1-.17,2.85,50,50,0,0,1-1.33,5,16.52,16.52,0,0,1-4.25,6.71,11.19,11.19,0,0,1-5.48,2.81,10.93,10.93,0,0,1-5.84-.6,14.87,14.87,0,0,1-5.35-3.52,20.42,20.42,0,0,1-4-6,21.76,21.76,0,0,1-1.82-7.95,36.2,36.2,0,0,1,.31-6.94,31.63,31.63,0,0,1,1.56-6.29,23.2,23.2,0,0,1,2.63-5.22,16.19,16.19,0,0,1,3.52-3.81,11.13,11.13,0,0,1,4.23-2,9.34,9.34,0,0,1,4.74.15,8,8,0,0,1,2.8-2.68,7,7,0,0,1,3-.87,6.42,6.42,0,0,1,2.66.42,5.26,5.26,0,0,1,1.85,1.17,1.07,1.07,0,0,1,.23.66,1.51,1.51,0,0,1-.15.74,1,1,0,0,1-.51.49.79.79,0,0,1-.76-.1,9.09,9.09,0,0,0-1.79-.83,4.57,4.57,0,0,0-1.84-.26,4.15,4.15,0,0,0-1.77.55,4.82,4.82,0,0,0-1.53,1.55,8,8,0,0,1,2.51,2.09,11.61,11.61,0,0,1,2.53,5.92,8.17,8.17,0,0,1-.15,2.91,5.12,5.12,0,0,1-1.21,2.25,3.76,3.76,0,0,1-2.32,1.15,4.18,4.18,0,0,1-2.48-.87,5,5,0,0,1-1.47-2,10,10,0,0,1-.7-2.61,20.4,20.4,0,0,1-.19-2.78c0-.91,0-1.74.11-2.51s.13-1.34.19-1.74a6.13,6.13,0,0,0-3.72.23,10.43,10.43,0,0,0-3.38,2.21,16.12,16.12,0,0,0-2.8,3.7A25.6,25.6,0,0,0,323,398a29.07,29.07,0,0,0-1.17,5.35,23.76,23.76,0,0,0,0,5.46,21,21,0,0,0,1.32,5.65,19.29,19.29,0,0,0,2.5,4.56,14.87,14.87,0,0,0,3.29,3.25,10.13,10.13,0,0,0,3.72,1.68,8,8,0,0,0,3.8-.11,7.84,7.84,0,0,0,3.51-2.12,14.09,14.09,0,0,0,2.82-4.42,27.48,27.48,0,0,0,1.81-6.92Zm.51-23.19a10.23,10.23,0,0,0-.27,1.57,19.51,19.51,0,0,0-.11,2.08c0,.74,0,1.47.11,2.19a8.6,8.6,0,0,0,.4,2,3.48,3.48,0,0,0,.77,1.35,1.25,1.25,0,0,0,1.19.37,3.12,3.12,0,0,0,1.29-2.09,7.18,7.18,0,0,0,0-2.88,8,8,0,0,0-1.19-2.79A4.42,4.42,0,0,0,337.26,387.61Z" transform="translate(-239.71 -274.47)" fill="#050505"/><path d="M352.85,418.83v-3.35c0-.8,0-1.65,0-2.55s0-1.76,0-2.55,0-1.49,0-2.1,0-1,0-1.26a40,40,0,0,1-3-3.95,27.73,27.73,0,0,1-1.57-2.72,7.53,7.53,0,0,1-.61-1.57c-.07-.34-.11-.52-.11-.55a1.85,1.85,0,0,1,.32-1,1,1,0,0,1,.91-.49,6.86,6.86,0,0,1,1.49,1.89c.42.78.83,1.55,1.21,2.32s.74,1.44,1.08,2,.71.88,1.11.91a7.51,7.51,0,0,0,1.76-1.89,16.5,16.5,0,0,0,1.21-2.21c.34-.75.67-1.48,1-2.19a8.55,8.55,0,0,1,1.06-1.82,2.31,2.31,0,0,1,.87,0,1.35,1.35,0,0,1,.74.31,1.19,1.19,0,0,1,.39.64,1.75,1.75,0,0,1-.13.94l-5.31,9.6a19.8,19.8,0,0,0-.13,2.52c0,1,0,2.06,0,3.17s.07,2.18.11,3.23.06,1.94.06,2.67a1.19,1.19,0,0,1-1.23.64A2.08,2.08,0,0,1,352.85,418.83Z" transform="translate(-239.71 -274.47)" fill="#050505"/><path d="M362.28,398.66a2.73,2.73,0,0,1,.9-1.39,1.56,1.56,0,0,1,1-.25,2,2,0,0,1,.91.34l.53.36q1.44,2.17,2.91,4.42a22.93,22.93,0,0,0,3.5,4.16q2.34-3,3.87-4.84t2.49-2.91a16.18,16.18,0,0,1,1.44-1.45,2.21,2.21,0,0,1,.76-.46.67.67,0,0,1,.47,0,.9.9,0,0,0,.57,0c.46,0,.8.37,1.05,1.12a14.9,14.9,0,0,1,.53,2.94c.11,1.2.17,2.57.17,4.09v4.63c0,1.56,0,3.08,0,4.55s.08,2.76.19,3.87a1.65,1.65,0,0,1-.32,1.27,1.73,1.73,0,0,1-.93.64,1.22,1.22,0,0,1-1-.22,1.57,1.57,0,0,1-.54-1.31c-.19-2.52-.31-4.8-.34-6.84s0-3.82,0-5.35,0-2.78.07-3.74a12.84,12.84,0,0,0-.05-2q-1.6,1.78-3,3.5c-.91,1.15-1.73,2.15-2.48,3a17.29,17.29,0,0,1-1.94,1.93c-.53.44-1,.55-1.31.32a1.39,1.39,0,0,1-.7-.3,9.45,9.45,0,0,1-1.28-1.12c-.55-.56-1.24-1.33-2.08-2.32s-1.88-2.29-3.12-3.91c0,.57,0,1.31,0,2.23s.06,1.94.11,3,.09,2.25.15,3.42.1,2.3.14,3.38.08,2.06.11,2.95,0,1.59,0,2.1a1.51,1.51,0,0,1-.36,1.19,1.44,1.44,0,0,1-.93.47,1.34,1.34,0,0,1-1-.32,1.41,1.41,0,0,1-.45-1.17q-.21-4.11-.21-7.58t0-6.05c0-1.73,0-3.15.07-4.25A14,14,0,0,0,362.28,398.66Z" transform="translate(-239.71 -274.47)" fill="#050505"/><path d="M385.69,399.59a2.1,2.1,0,0,1-.4-.74,1.88,1.88,0,0,1-.09-.87,1.44,1.44,0,0,1,.34-.75,1.21,1.21,0,0,1,.87-.36,3,3,0,0,1,2.08,1.11,17,17,0,0,1,2.15,2.82c.72,1.15,1.43,2.4,2.12,3.76l2,3.91c.64,1.24,1.24,2.35,1.8,3.31a7.61,7.61,0,0,0,1.49,2,24.12,24.12,0,0,0,.3-4.52c0-1.68-.11-3.37-.24-5s-.27-3.27-.42-4.76-.25-2.7-.28-3.63a1,1,0,0,1,.3-.79.91.91,0,0,1,.7-.25,1.51,1.51,0,0,1,.85.36,2.36,2.36,0,0,1,.74,1.06q0,.42.09,1.59c.06.78.13,1.72.23,2.83s.19,2.31.28,3.61.14,2.61.17,3.93,0,2.59,0,3.82a24.22,24.22,0,0,1-.3,3.25,7.06,7.06,0,0,1-.7,2.23,1.32,1.32,0,0,1-1.23.79,2,2,0,0,1-1.6-.77,11.71,11.71,0,0,1-1.65-2.27c-.55-1-1.12-2-1.7-3.21s-1.16-2.36-1.74-3.5-1.16-2.2-1.72-3.17a10.77,10.77,0,0,0-1.7-2.25v15.8a1.15,1.15,0,0,1-.53.83,1.42,1.42,0,0,1-1,.21,1.72,1.72,0,0,1-.93-.42,1.32,1.32,0,0,1-.43-1.08Z" transform="translate(-239.71 -274.47)" fill="#050505"/><path d="M402.68,415.73a11.73,11.73,0,0,1,.49-2.89,34.39,34.39,0,0,1,1.36-4q.87-2.16,2-4.38a30.41,30.41,0,0,1,2.44-4,15.18,15.18,0,0,1,2.72-2.93,4.49,4.49,0,0,1,2.78-1.15,6.18,6.18,0,0,1,.89.07,3.62,3.62,0,0,1,1,.25,2.4,2.4,0,0,1,.78.51,1.15,1.15,0,0,1,.32.87c.2,1.45.37,3,.51,4.76s.26,3.48.34,5.25.15,3.49.19,5.18.07,3.19.07,4.52a.91.91,0,0,1-.28.79,1.71,1.71,0,0,1-.85.53,1.31,1.31,0,0,1-1-.17,1.89,1.89,0,0,1-.72-1.32l.13-10.15a18,18,0,0,1-1.34,3.59,22.47,22.47,0,0,1-2.31,3.76,17,17,0,0,1-3.06,3.1,8.75,8.75,0,0,1-3.57,1.7,2.44,2.44,0,0,1-1.36-.36,2.67,2.67,0,0,1-.89-.94,4.13,4.13,0,0,1-.49-1.25A6.3,6.3,0,0,1,402.68,415.73Zm11.85-16.31A4.56,4.56,0,0,0,412,401a20,20,0,0,0-2.52,3.29,31.51,31.51,0,0,0-2.17,4.12,32.31,32.31,0,0,0-1.49,4.08,12.19,12.19,0,0,0-.53,3.12q0,1.23.72,1.23a9.49,9.49,0,0,0,3.59-2.78,21.36,21.36,0,0,0,3-4.57,23.78,23.78,0,0,0,1.82-5.24A11.54,11.54,0,0,0,414.53,399.42Z" transform="translate(-239.71 -274.47)" fill="#050505"/><path d="M422.05,416.67a6.4,6.4,0,0,0,1-.15c.49-.1,1.06-.24,1.7-.41s1.31-.39,2-.65a12.91,12.91,0,0,0,2-.94,6.61,6.61,0,0,0,1.55-1.21,3.17,3.17,0,0,0,.81-1.53c0-.34-.22-.59-.75-.76a13.63,13.63,0,0,0-2-.45l-2.57-.45a14.84,14.84,0,0,1-2.57-.7,6,6,0,0,1-2-1.17,2.35,2.35,0,0,1-.76-1.95,4.71,4.71,0,0,1,.25-2.29,10.91,10.91,0,0,1,1.3-2.57,14.57,14.57,0,0,1,2.1-2.47,12.53,12.53,0,0,1,2.7-2,10.45,10.45,0,0,1,3.06-1.08,6.7,6.7,0,0,1,3.2.17,1.21,1.21,0,0,1,.66.72,2,2,0,0,1,.13,1,1.52,1.52,0,0,1-.32.78.53.53,0,0,1-.64.19,11.72,11.72,0,0,0-3.31.24,10,10,0,0,0-3.1,1.19,7.31,7.31,0,0,0-2.32,2.14,5.31,5.31,0,0,0-.91,3.06,1.71,1.71,0,0,0,.81,1.51,6.63,6.63,0,0,0,2,.83,23.86,23.86,0,0,0,2.65.46,24,24,0,0,1,2.66.47,6.18,6.18,0,0,1,2,.85,1.8,1.8,0,0,1,.8,1.57,3.11,3.11,0,0,1-.53,2.12,8.91,8.91,0,0,1-1.74,1.94,13.14,13.14,0,0,1-2.48,1.63,26.06,26.06,0,0,1-2.83,1.26,19.07,19.07,0,0,1-2.72.8,8.46,8.46,0,0,1-2.19.24,1.41,1.41,0,0,1-1-.58,1,1,0,0,1-.13-.8,1.48,1.48,0,0,1,.49-.73A1.31,1.31,0,0,1,422.05,416.67Z" transform="translate(-239.71 -274.47)" fill="#050505"/><path d="M437.38,404l-4.75-.05a1.48,1.48,0,0,1-.51-.72,1.94,1.94,0,0,1-.13-.91,1.84,1.84,0,0,1,.25-.79.85.85,0,0,1,.64-.38c.23,0,.54,0,.94,0s.81-.05,1.25-.06l1.25,0h.94l-.22-4.54a.94.94,0,0,1,.45-.64,1.43,1.43,0,0,1,.79-.19,1.82,1.82,0,0,1,.85.28,1.54,1.54,0,0,1,.63.76l.09,4.21,4.8-.34a.55.55,0,0,1,.66.32,1.92,1.92,0,0,1,.15.91,3,3,0,0,1-.22.93c-.11.29-.25.41-.42.39a7,7,0,0,1-1,.14c-.45.05-.93.08-1.44.11l-1.45.09a9.68,9.68,0,0,0-1,.08l.29,14.91a.87.87,0,0,1-.38.66,1.46,1.46,0,0,1-.76.25,2.45,2.45,0,0,1-.85-.1,1.36,1.36,0,0,1-.64-.38Z" transform="translate(-239.71 -274.47)" fill="#050505"/><path d="M449.11,399.17a1.37,1.37,0,0,1-1.15-.54,2,2,0,0,1-.45-1.14,1.76,1.76,0,0,1,.34-1.11,1.33,1.33,0,0,1,1.21-.44,1.57,1.57,0,0,1,1.19.48,1.88,1.88,0,0,1,.54,1.11,1.46,1.46,0,0,1-1.68,1.64ZM447.79,419c.09-.85.15-1.95.19-3.29s.06-2.79.06-4.31,0-3.08-.06-4.63-.12-3-.23-4.29c-.14-.17-.08-.44.19-.79a2.26,2.26,0,0,1,1-.76,1.19,1.19,0,0,1,1.1.06c.35.2.55.75.57,1.66s.14,2.2.15,3.48,0,2.6,0,4,0,2.77,0,4.18.06,2.79.15,4.13a1.24,1.24,0,0,1-.53.87,1.9,1.9,0,0,1-.87.25,2.35,2.35,0,0,1-.94-.15A2.4,2.4,0,0,1,447.79,419Z" transform="translate(-239.71 -274.47)" fill="#050505"/><path d="M453.19,409.78a11.75,11.75,0,0,1,.51-3.78,16.68,16.68,0,0,1,1.8-4.14,15,15,0,0,1,3.06-3.61,9.42,9.42,0,0,1,4.31-2.1,1,1,0,0,1,.85.68,1.57,1.57,0,0,1-.34,1.49,17.31,17.31,0,0,0-5.63,4.54,10.33,10.33,0,0,0-2.1,6.58,12.52,12.52,0,0,0,.21,2.23,10.77,10.77,0,0,0,.62,2.17,6.1,6.1,0,0,0,1,1.7,2.39,2.39,0,0,0,3.12.62,7,7,0,0,0,2.1-1.83c.26-.23.48-.28.68-.15a1,1,0,0,1,.4.64,2.65,2.65,0,0,1,0,1,1.61,1.61,0,0,1-.46,1,7.79,7.79,0,0,1-2.85,2.19,4,4,0,0,1-2.5.23,4.15,4.15,0,0,1-2.06-1.27,8.46,8.46,0,0,1-1.53-2.34,13.58,13.58,0,0,1-.94-2.89A12.45,12.45,0,0,1,453.19,409.78Z" transform="translate(-239.71 -274.47)" fill="#050505"/><path d="M466.27,416.67a6.4,6.4,0,0,0,1-.15c.49-.1,1.06-.24,1.7-.41s1.31-.39,2-.65a12.91,12.91,0,0,0,2-.94,6.83,6.83,0,0,0,1.55-1.21,3.17,3.17,0,0,0,.81-1.53c0-.34-.22-.59-.75-.76a13.63,13.63,0,0,0-2-.45c-.8-.13-1.65-.28-2.57-.45a14.84,14.84,0,0,1-2.57-.7,6,6,0,0,1-2-1.17,2.35,2.35,0,0,1-.76-1.95A4.71,4.71,0,0,1,465,404a10.54,10.54,0,0,1,1.3-2.57,14.57,14.57,0,0,1,2.1-2.47,12.53,12.53,0,0,1,2.7-2,10.25,10.25,0,0,1,3.06-1.08,6.7,6.7,0,0,1,3.2.17,1.24,1.24,0,0,1,.66.72,2,2,0,0,1,.13,1,1.52,1.52,0,0,1-.32.78.53.53,0,0,1-.64.19,11.72,11.72,0,0,0-3.31.24,10,10,0,0,0-3.1,1.19,7.21,7.21,0,0,0-2.32,2.14,5.23,5.23,0,0,0-.91,3.06,1.71,1.71,0,0,0,.81,1.51,6.43,6.43,0,0,0,2,.83,23.86,23.86,0,0,0,2.65.46,24.4,24.4,0,0,1,2.66.47,6.18,6.18,0,0,1,2,.85,1.8,1.8,0,0,1,.8,1.57,3.11,3.11,0,0,1-.53,2.12,8.91,8.91,0,0,1-1.74,1.94,12.91,12.91,0,0,1-2.49,1.63,25.09,25.09,0,0,1-2.82,1.26,19.46,19.46,0,0,1-2.72.8,8.46,8.46,0,0,1-2.19.24,1.41,1.41,0,0,1-.95-.58,1,1,0,0,1-.13-.8,1.42,1.42,0,0,1,.49-.73A1.29,1.29,0,0,1,466.27,416.67Z" transform="translate(-239.71 -274.47)" fill="#050505"/><path d="M480.75,443.47c.23.11.25-.26.31-.31C480.64,443.11,480.73,443.57,480.75,443.47Z" transform="translate(-239.71 -274.47)" fill="#c7292c"/><polygon points="236.9 168.56 237.01 168.44 236.33 168.6 236.9 168.56" fill="#c7292c"/><path d="M473,441.91c.17.69,1.35.3,1.94.71l.07.16.43-.38A9.54,9.54,0,0,1,473,441.91Z" transform="translate(-239.71 -274.47)" fill="#c7292c"/><path d="M471.38,440c.06.27-.48.08.44.21l-.07-.08A2.41,2.41,0,0,1,471.38,440Z" transform="translate(-239.71 -274.47)" fill="#c7292c"/><path d="M471.75,440.17c.4.1-.19-.27,0,0Z" transform="translate(-239.71 -274.47)" fill="#c7292c"/><path d="M469.93,439.79l.57-.06c-.07-.17-.52-.33-.32-.38C469.62,439.31,469.69,439.48,469.93,439.79Z" transform="translate(-239.71 -274.47)" fill="#c7292c"/><path d="M469.32,440.08h.29C469.58,440,469.51,440,469.32,440.08Z" transform="translate(-239.71 -274.47)" fill="#c7292c"/><path d="M470.22,440.05l-.61,0c0,.12,0,.31.27,0C469.79,440.24,470,440.1,470.22,440.05Z" transform="translate(-239.71 -274.47)" fill="#c7292c"/><path d="M470.51,440.23c.25.21.6.39,0,.45C471.54,440.88,471.51,440.42,470.51,440.23Z" transform="translate(-239.71 -274.47)" fill="#c7292c"/><path d="M472.59,442.46l.33.29.39-.1C473.11,442.7,472.62,442.27,472.59,442.46Z" transform="translate(-239.71 -274.47)" fill="#c7292c"/><path d="M466.83,438.58c-.07.11.08.38.07.56l.42,0C467.15,439,466.8,438.77,466.83,438.58Z" transform="translate(-239.71 -274.47)" fill="#c7292c"/><path d="M466.9,439.14l-.63.05C466.77,439.36,466.89,439.28,466.9,439.14Z" transform="translate(-239.71 -274.47)" fill="#c7292c"/><polygon points="229.33 166.25 230.38 166.06 229.15 166.2 229.33 166.25" fill="#c7292c"/><polygon points="224.95 163.51 225.35 163.3 224.66 163.59 224.95 163.51" fill="#c7292c"/><path d="M463.21,437.64c.3-.18-.22-.49.08-.58a2.58,2.58,0,0,0-1.15.17A1.53,1.53,0,0,1,463.21,437.64Z" transform="translate(-239.71 -274.47)" fill="#c7292c"/><path d="M461.57,437.37a3.62,3.62,0,0,0,.57-.14A1.58,1.58,0,0,0,461.57,437.37Z" transform="translate(-239.71 -274.47)" fill="#c7292c"/><path d="M465.33,438.87a.7.7,0,0,0-.35-.48l.13.42Z" transform="translate(-239.71 -274.47)" fill="#c7292c"/><path d="M465.11,438.82h0l-.48-.15Z" transform="translate(-239.71 -274.47)" fill="#c7292c"/><path d="M465.38,438.89l-.05,0S465.35,438.93,465.38,438.89Z" transform="translate(-239.71 -274.47)" fill="#c7292c"/><path d="M467.65,440c-.38.1-1.13.12-.55.61C467.41,440.41,467.07,440.13,467.65,440Z" transform="translate(-239.71 -274.47)" fill="#c7292c"/><path d="M465.54,439.41l.58.24c0-.1-.06-.26.13-.32Z" transform="translate(-239.71 -274.47)" fill="#c7292c"/><polygon points="225.5 164.97 225.83 164.94 225.61 164.85 225.5 164.97" fill="#c7292c"/><path d="M462.51,438a2,2,0,0,1-.91,0,5.4,5.4,0,0,0,1,.39C462.68,438.23,462.89,438.06,462.51,438Z" transform="translate(-239.71 -274.47)" fill="#c7292c"/><path d="M463.77,438.42h-.07S463.76,438.48,463.77,438.42Z" transform="translate(-239.71 -274.47)" fill="#c7292c"/><polygon points="218.71 162.67 218.75 162.75 218.77 162.69 218.71 162.67" fill="#c7292c"/><path d="M462.65,438.41a.59.59,0,0,0,.59,0,5.12,5.12,0,0,1-.63-.1S462.56,438.4,462.65,438.41Z" transform="translate(-239.71 -274.47)" fill="#c7292c"/><path d="M460.64,437.31a2.64,2.64,0,0,0,.4.31C460.94,437.48,460.71,437.23,460.64,437.31Z" transform="translate(-239.71 -274.47)" fill="#c7292c"/><path d="M463.64,438.3h.05C463.62,438.2,463.62,438.24,463.64,438.3Z" transform="translate(-239.71 -274.47)" fill="#c7292c"/><path d="M463.64,438.3a1.87,1.87,0,0,0-.4.13,2.3,2.3,0,0,0,.46,0Z" transform="translate(-239.71 -274.47)" fill="#c7292c"/><path d="M456.9,439.2c.12-.32.88-.46,1.38.05.63-.11.53-1.29.18-2-.06.14-.09.27-.73.32.16.23,1.21.75.63.93-.83,0-.61-.28-.95-.55.22.49-1.15.35-1.13,1l.74,0C457,439,456.73,439.07,456.9,439.2Z" transform="translate(-239.71 -274.47)" fill="#c7292c"/><path d="M459.59,437.54l.25,0a2.28,2.28,0,0,1-.73-.67c-.45.06-.57.17-.63.27l1.2.35Z" transform="translate(-239.71 -274.47)" fill="#c7292c"/><path d="M461,437.83c-.29.31-.92.32-.66.8.73.16.59-.18,1.06-.22-1.19-.21.38-.12-.4-.54a3.24,3.24,0,0,1,.65.07,5.88,5.88,0,0,1-.56-.32l0,0h0s.05.09,0,0h0a.83.83,0,0,1-.08.12c-.32-.16,0-.11.08-.12l0,0h0l-1.22-.09A4.41,4.41,0,0,0,461,437.83Z" transform="translate(-239.71 -274.47)" fill="#c7292c"/><path d="M466.27,441.19a.12.12,0,0,1,0-.1C466.17,441.12,466.14,441.14,466.27,441.19Z" transform="translate(-239.71 -274.47)" fill="#c7292c"/><path d="M465.86,440.84a.49.49,0,0,1,.47,0c.2.18-.05.17-.07.29.19,0,.64-.09.18-.41l-.1,0c-.42-.25-.9-.86-.81-.88A2.63,2.63,0,0,0,465.86,440.84Z" transform="translate(-239.71 -274.47)" fill="#c7292c"/><path d="M463.35,439.42l-1-.09.41.45,0-.2C463.3,439.8,463.25,439.54,463.35,439.42Z" transform="translate(-239.71 -274.47)" fill="#c7292c"/><polygon points="218.65 162.47 218.87 162.12 218.18 162.51 218.65 162.47" fill="#c7292c"/><polygon points="217.37 162.2 217.5 161.88 217.12 161.99 217.37 162.2" fill="#c7292c"/><path d="M384.39,433l-.29.11A.92.92,0,0,0,384.39,433Z" transform="translate(-239.71 -274.47)" fill="#c7292c"/><path d="M386.48,433l0-.17C386.43,432.93,386.4,433,386.48,433Z" transform="translate(-239.71 -274.47)" fill="#c7292c"/><path d="M425.67,430.81c-.39-.37-.8-.92-.8-.53l.09.38A1.11,1.11,0,0,1,425.67,430.81Z" transform="translate(-239.71 -274.47)" fill="#c7292c"/><path d="M403.74,431.14l.12.12.31-.35Z" transform="translate(-239.71 -274.47)" fill="#c7292c"/><path d="M403.38,432.68l-.55-.27A2.15,2.15,0,0,0,403.38,432.68Z" transform="translate(-239.71 -274.47)" fill="#c7292c"/><path d="M373,434.17l-.3.42C373.22,434.53,373,434.36,373,434.17Z" transform="translate(-239.71 -274.47)" fill="#c7292c"/><path d="M444,433.93a3.2,3.2,0,0,0-.86-.4C443.57,433.83,443.86,434.21,444,433.93Z" transform="translate(-239.71 -274.47)" fill="#c7292c"/><path d="M385.07,429c-.18.08-.25.16-.24.24C385,429.21,385.11,429.13,385.07,429Z" transform="translate(-239.71 -274.47)" fill="#c7292c"/><path d="M442.13,433.33l.17.12a2.73,2.73,0,0,1,.88.08A1,1,0,0,0,442.13,433.33Z" transform="translate(-239.71 -274.47)" fill="#c7292c"/><path d="M332.37,441.78s-.07,0-.1,0S332.32,441.81,332.37,441.78Z" transform="translate(-239.71 -274.47)" fill="#c7292c"/><path d="M319.63,442.28a2.85,2.85,0,0,1,.46-.22A1.11,1.11,0,0,0,319.63,442.28Z" transform="translate(-239.71 -274.47)" fill="#c7292c"/><path d="M452,435.31c.28,0,.05,0,0,0Z" transform="translate(-239.71 -274.47)" fill="#c7292c"/><path d="M453,437.06a.22.22,0,0,0-.15.15A.27.27,0,0,1,453,437.06Z" transform="translate(-239.71 -274.47)" fill="#c7292c"/><path d="M439,435.12h0C439.05,435.2,439,435.19,439,435.12Z" transform="translate(-239.71 -274.47)" fill="#c7292c"/><path d="M452.39,435.57a1.42,1.42,0,0,0-.32-.19A1.83,1.83,0,0,0,452.39,435.57Z" transform="translate(-239.71 -274.47)" fill="#c7292c"/><path d="M452.37,435.38l.23.09C452.65,435.42,452.63,435.37,452.37,435.38Z" transform="translate(-239.71 -274.47)" fill="#c7292c"/><path d="M451.64,435.24a1.81,1.81,0,0,1,.43.14c-.05,0-.07-.06-.05-.07Z" transform="translate(-239.71 -274.47)" fill="#c7292c"/><path d="M353.73,435.5l-.07,0C353.42,435.68,353.54,435.63,353.73,435.5Z" transform="translate(-239.71 -274.47)" fill="#c7292c"/><path d="M418.13,433.86h0l0,0Z" transform="translate(-239.71 -274.47)" fill="#c7292c"/><path d="M417.13,434c.46-.42.69-.34,1-.21l-.21-1.11Z" transform="translate(-239.71 -274.47)" fill="#c7292c"/><path d="M379.38,433.41l.7.29c-.79.6-1.39.44-.72.88,0-1.17,2.64-.26,2.67-1.44l.46.22c-.13,0-.14.07-.27.06.9.52.61-.89,1.75-.76.4.07.68.24.42.38l.86-.31c.26,0,.21.22-.05.2l1.34-.13v0a4.71,4.71,0,0,1,.82-.61c.34.15-.17.13-.08.27l.74-.31c.31.3-.3.61-.81.58.72,1.16.61-.33,2.12.34l-.7.16c.46.65,1,.41,1.8.82-.19-.22-1.6-1-.8-1.33a1.09,1.09,0,0,0,1-.12c0,.42.43.31,1,.29l0,.55c.57-.17.52-.45.86-.7.64.05.77.48.92.84,1,.08-.7-.68.51-.8a4.09,4.09,0,0,0,2.47-.31c.6.2-.1.34.11.5l.53-.44c.13,0,.09.15.07.22.44-.17,0-.55.75-.69.2-.6,1.42.9,2.3.25.21.16-.11.33,0,.55a7,7,0,0,0,2-.87l.82.39c-.6-.43.21-.89.91-1.27a6.21,6.21,0,0,0-.51-.48l1.12-.26c.13.1,0,.28-.18.51l.2-.13c.39.22.17.53-.13.83l-.38-.35a1.51,1.51,0,0,0-.51,1,.87.87,0,0,1,.37-.14c-.08.09-.13.17-.1.23s.16-.06.34-.19l.22.62.07-.24,1.41.46c1.06-.56,2-1.42,3.65-1.58-.43.43-.13.73-.19,1.27-.41-.59-1.27.16-2.11,0,.44.09.33.33.21.42l1.53-.43c-.06.43.3.35.68.55-.24-.89,1.16-.49,1.79-.71,0,.29-.16.58-.9.45.78.71,1.14-.93,1.91-.31-.19,0-.28-.06-.36.08.44-.23,1.47.06,1.2.29h-.18c1.2.19,3.67.33,3.92-.38a5.92,5.92,0,0,1-.33,1l2.4-2.25c-.25.61.32,2.18-.72,2.44a1.77,1.77,0,0,0,1.25.09c-.19-.11-.39-.95-.12-1,.66.78.47.42,1.31,1.13-.28-.17.16-1.12.62-1-.09.14-.07,1-.26,1.06l1.27-.83c-.31.14-.15.81.08,1.12-.1-.21,1,.13,1.31.07l-.46-.28c1.28.31,1.45-1.21,2.74-1-.18.17-.55,1.17.09,1.38.36-.45,1.65-2.19,2.86-2.41l.18.32.92-.2a20.17,20.17,0,0,1-3.32,2.5c.45.29.09.35.82.43.22.3-.45.34-.67.33l1.66.4c0-.58,1.38-.39,1.38-.88l-1.92.34c0-.58,1.29-1.48,2.48-1.21.28.27-.38,1-.38,1.18a1.68,1.68,0,0,1,1.28,0l-.55.22c.63.32,1.2-.59,1.91.09.27.08.71.87.81.54a4.79,4.79,0,0,1,.27-3.21,9.46,9.46,0,0,1,1.62,1.23c.37.58-.88,1.11-.57,1.61,0-.15.33-.3.44-.35.27.18-.2.46.44.5.2-.56,1.27.28.38-.44.65-.05.63.24,1.36.34-.16-.41.87-1.16,1.53-1.21-.07.14,0,.35.09.45,1.25.28,1.88.66,3.06.9.08.17.61.45.32.65a1.19,1.19,0,0,1,.75-.18c.6.64-.82-.08-.41.62.11-.32,1-.28,1.59-.38-.06-.55-1.18-.34-1.73-.23.13-.72,1.18-1.29,2.48-1.38,1,0,.33.55.52.48,1.81.51,1.83-.91,3.24-.07.51.58-.16.91-.1,1.26-.83,0-1.16-.55-1.7-.65l.62.36a1.45,1.45,0,0,1-1.1-.09c.42.51,3.07.73,4.4,1.42.28-.1.75-.15.59-.38l-.46,0c-.33-.46.95-.31.42-.61a3.26,3.26,0,0,1,2.22,0l0,.56c0-.16-.48-.44-.76-.34.41-.14,1.13,1,1.68.41l-.51-.49c.66-.12,1.54-.5,2.24-.15-.21-.6-.18,0-.57-.71.28.85-1.91-.47-1.35.48-.39-.82-.88-.52-1.46-1.27,0,.17.18.38-.43.15a.66.66,0,0,1-.17.12l0,0,0,0s0,0,0,0a.75.75,0,0,1,.26.33c-.4.32-1.39.07-1.78.2-.35-.16.2-.16,0-.39l-.58.2c0-.39-.85-.84.08-.88l-.79-.18a2.21,2.21,0,0,0-1.48-.47c-.36-.16-1,.22-.65,0l-1.29,0v-.1c-1.22-.29-2.66.14-3.94-.83a3.75,3.75,0,0,1-1.56-.19l-.07-.35c-.56,0-1.55-.62-1.84-.32-.43-1-2.57-.67-3.49-1l-.11.42a8.57,8.57,0,0,0-2.12-.06l0,.39c-.74.21-1.74-.56-2.85-.68.1-.13.37-.06.56.06-1.2-1.05-2.87.24-4-.55a.8.8,0,0,1-.72-.11h.08l-.12,0c-.13-.09-.25-.18-.39-.26a1.34,1.34,0,0,0,.32.25,3.85,3.85,0,0,0-.94,0l-.09-.43h-.08c-.32-.2-.3.16-.16.49a1.61,1.61,0,0,0-.48.2c-.19-.7-.93.11-1.21-.64-.28.32-1.76,0-2,.76,0-.1-.1-.15.09-.14a1.44,1.44,0,0,0-1.11-.08l-.1-.54-.91.62c-.47-.37-.67-.58-.12-.93-1.28.5-1,.13-2.1.65l.08-.34c-.37,0-1,.38-1.2.07-.77-.73-4.08-.43-6.16-1.18.34,1-1-.51-1.1.26-.11-.24-.4-.39,0-.58-1.1.17-1.61-.47-2.4.14-.11-.25.25-.34.15-.48-.09,0-.36.18-.46,0s.17-.19.34-.29c-1.11,0-1.26.7-1.37,1.39a.83.83,0,0,0-1.26.12c-.18-.23-.5-.48.19-.53-.38-.05-2.36-.42-2.41.13-.12-.14-.55-.06-.65,0a9.91,9.91,0,0,0-1.8-.08l.23.09c-.35.66-.71.14-1.4.21l0-.07c-1.57-.5-.68.22-2.23-.35l.08.42c-.15.89-1.38-.56-2.29-.2l.33.23c-.49.31-1.38-1.2-1.89-1.31-.1-.07.18-.12.33-.18-1.31-.51-.17.54-1.14.68-.18-.29.23-.75-.43-.8-.33-.23-1.88,1-2.79.44.21.22.41.44,0,.62-.68.11-1.89-.79-2.49-.06-.09-.06-.13-.12-.13-.17-.53.2-1.71.35-2,.76-.55-1.4-3.23.88-3.29-.44l-1.62.16,0-.14a2,2,0,0,0-1.72.69c-.25-.07-.08-.21-.07-.28a3.24,3.24,0,0,0-2.89.68l-.17-.42c-.32.26-2.24-.45-3.68.2a.29.29,0,0,1,.15-.21c-1.61.65-4.14-.73-4.55.9l-1.05.52c1.43-.06-.12.7.49.88-.54.16-1.49-.28-.82-.45l.12.07c.14-.84-1.8-.07-1.84-.61-2.77.46-5.55.42-8.16.88l.42.57-.91.13c-.27-.11-.41-.43.24-.52-.41-.29-1,.49-1,.63-1.32,0,.35-.82,0-.76l-.52.14.14,0c-.38.33-.37.6-1.15.73-.51,0-.32-.33-.52-.31,0-.05-.08-.05-.3,0l-1.15.19.56.39c-.45.35-1.07.2-.43.64-.48-.35-1.55-.2-2.57,0a10.52,10.52,0,0,1-2.24.45,4.35,4.35,0,0,1-2.17.84c.23.05.49.57-.26.67,0-1.2-1.46-.15-2.26-.79.67.4-2.05.69-1,1.23-.64.07-.15-.41-.68-.55-1.35.8-3.29.61-5,1.29,0,.16.38.29.06.62l-1.16-.45c-.34.18-.07.93-.87.63.13.09.32.23.1.36a22,22,0,0,0-5.32,1.61,14.89,14.89,0,0,1-5.48,1.36c.57.09.27.24-.08.39.25,0,.13.35.25.53l-1.65,0c-.05.64-1.53.66-1.48,1.22l.42-.27c-.36.84,1.39,1,1.61,1.79.4-.95,2.16.3,2.87-1.11.31.06-.11.33.09.46.15-.44.47-.63,1.15-.71l0,.1A23.5,23.5,0,0,1,328,443l-.29-.34a1.71,1.71,0,0,1,.82,0c.3-.75-1.22.37-1-.42.84.59,3-1,3.73-.23.66-.21-.34-.38.32-.6l.25.19.07-.37a.75.75,0,0,1,.85.36c-.11,0-.28.15-.39.2.66.12,1.57-.57,1.8-.54l-.69,0c1.75-.77,4.07-1.12,5.72-2.07l-.19-.15c1.27-.71,1.15-.09,2.6-.65l0,.06a1.92,1.92,0,0,1,1.05-.53c-.33.31.81.26.38.62,1.39-.72.66-.47,1.48-1.4l.3.26a1.46,1.46,0,0,1,1-.78c-.55.42.59.37,0,.88,1.73.3,2.2-1.2,3.14-.36.55-1-1.47-.2-1.1-.47-.41-.21.46-.77,1-.79s1.1.93,2.36.65c-.12,0-.12.09-.25.11.52.13.88-.5,1.54-.24.22-.59.76-.11.73-.8L352,436c.64-.3,1.12-1.2,2.29-1a1.92,1.92,0,0,1-.56.53c.36.14.59-.24,1-.1,0,.69-1.4.41-2,1.05.4.22,1.26-.73,1,.06.34-1,1.28-.11,2-1V436a1.58,1.58,0,0,1,.63-.36l-.36.6c.62-.57,1.41.14,2.05-.2-1.41.23-.4-.44-1.05-.63,1.66-.83,1.18.9,3.1.4-.26.1-1-.09-.65-.34a2.58,2.58,0,0,1,1.16.28c1.28-.28-.26-.39.25-.72.52.43.61-.3,1.15-.54l.07.41c1.51,0,.27-.92,1.65-.77l-.49.64.68-.24-.08.49a2.25,2.25,0,0,1,1.71-.35c-.21-.27,0-.76.66-.86.48.19-.2.43.72.25-.18.29-.37.64-.82.31,0,.14-.17.29-.2.43.52.22,1.22-.09,1.55-.14a.83.83,0,0,1-.37-.05l.64-.37.64-.36c.23.13.07.27-.08.41.27-.07.44-.28.84-.36-.07.35,0,.7-.56.91l1.25-.5c.1.13.7.33.54.47.73.13,1.68-.83,2.66-.67a.53.53,0,0,1,.33-.2c.9,0,1.72.36,2.74-.19l.64.56c.82-.2-.87-.7.49-1,1-.27.4.49.76.63a2.11,2.11,0,0,1,2.19-.56A3.23,3.23,0,0,1,379.38,433.41Zm10.22-.67c-.2.09-.59.36-.74.12C389.08,432.38,389.26,432.6,389.6,432.74Zm15.62-.73c-.15.13-.38.05-.63-.13A1.09,1.09,0,0,1,405.22,432ZM449,435l0,0C448.56,434.75,448.7,434.85,449,435Zm.88.38c.1,0,.11-.1.08-.17-.09.09-.29.06-.52,0C449.47,435.3,449.57,435.4,449.87,435.37Zm-99.55-2.07.2.07C350.14,433.57,350.23,433.44,350.32,433.3Z" transform="translate(-239.71 -274.47)" fill="#c7292c"/><path d="M403.42,432.5a.48.48,0,0,1-.07-.23C403.27,432.34,403.26,432.42,403.42,432.5Z" transform="translate(-239.71 -274.47)" fill="#c7292c"/><path d="M373.06,434.1h0a.16.16,0,0,0,0,.08Z" transform="translate(-239.71 -274.47)" fill="#c7292c"/><path d="M435.1,436.1a.79.79,0,0,1-.33-.27C434.74,435.93,434.81,436,435.1,436.1Z" transform="translate(-239.71 -274.47)" fill="#c7292c"/><path d="M454.85,435.77l-.61,0a.83.83,0,0,1,.49.26C454.74,435.9,454.66,435.74,454.85,435.77Z" transform="translate(-239.71 -274.47)" fill="#c7292c"/><path d="M459.26,439.5c.1,0,.18,0,.28,0l0-.19C459.2,439.24,458.91,439.33,459.26,439.5Z" transform="translate(-239.71 -274.47)" fill="#c7292c"/><path d="M455.07,437.24c0,.36.36.32.78.36l-.08,0C456,437.13,455.54,437.19,455.07,437.24Z" transform="translate(-239.71 -274.47)" fill="#c7292c"/><path d="M455.94,437.61a1.23,1.23,0,0,1,.38.08C456.41,437.51,456.18,437.61,455.94,437.61Z" transform="translate(-239.71 -274.47)" fill="#c7292c"/><path d="M451.07,435.39c.18.13.22-.42.3-.25C451.69,434.75,450,435.39,451.07,435.39Z" transform="translate(-239.71 -274.47)" fill="#c7292c"/><polygon points="215.42 163.98 215.38 163.52 215.07 163.81 215.42 163.98" fill="#c7292c"/><path d="M452,437.39l.62.27c0-.07.1-.1.21-.11C452.43,437.45,452,437.26,452,437.39Z" transform="translate(-239.71 -274.47)" fill="#c7292c"/><path d="M452.83,437.55a1.09,1.09,0,0,0,.54.06A2.12,2.12,0,0,0,452.83,437.55Z" transform="translate(-239.71 -274.47)" fill="#c7292c"/><polygon points="214.5 163.9 214.33 163.76 213.88 163.63 214.5 163.9" fill="#c7292c"/><path d="M445,435.81l-.73,0c-.1.13.07.26.35.25S445.11,436,445,435.81Z" transform="translate(-239.71 -274.47)" fill="#c7292c"/><path d="M446.93,437.41c-.17-.13-.16-.23-.24-.39l-.13.52Z" transform="translate(-239.71 -274.47)" fill="#c7292c"/><path d="M444.84,437.1c-.1.14-1.11.22-.21.37C444.73,437.33,445.47,437.35,444.84,437.1Z" transform="translate(-239.71 -274.47)" fill="#c7292c"/><polygon points="194.52 160.01 194.71 160.03 194.82 159.16 194.52 160.01" fill="#c7292c"/><path d="M424.44,435.18c.82.31.27-.53,1-.16.23-.18-.59-.3-.37-.45C424.53,434.73,424.28,434.57,424.44,435.18Z" transform="translate(-239.71 -274.47)" fill="#c7292c"/><path d="M425.07,434.57a1.19,1.19,0,0,0,.28-.1A1.15,1.15,0,0,0,425.07,434.57Z" transform="translate(-239.71 -274.47)" fill="#c7292c"/><polygon points="77.84 168.13 77.25 168.17 77.7 168.31 77.84 168.13" fill="#c7292c"/><path d="M316.8,443.6l-.34-.46-.11.59C316.46,443.66,316.67,443.52,316.8,443.6Z" transform="translate(-239.71 -274.47)" fill="#c7292c"/><path d="M391.13,433.86l0-.14c-.08-.14-.21-.15-.47-.18Z" transform="translate(-239.71 -274.47)" fill="#c7292c"/><polygon points="144.01 159.15 144.14 159.15 143.88 158.66 144.01 159.15" fill="#c7292c"/><path d="M377.56,434.61c.25,0,.54-.13.79-.13C377.81,434.61,377.44,434,377.56,434.61Z" transform="translate(-239.71 -274.47)" fill="#c7292c"/><path d="M243.54,442.09c2.11,0,3.37-.22,5.22-.32.8,0,.58.39,1.12.47s.36-.05.5-.27,0-.24.6-.24l4,0c0-.54-.78-1-1.32-1.12-.82-.23-1.25-.31-2.06-.5-1.13-.25.06-.45-2-.2a16.15,16.15,0,0,1-4.42-.56c-1-.29-.95-.9-.8-1.49.93-3.64,4.81-10.09,6.75-13.44a38.28,38.28,0,0,1,2-3.77c.59,2.87.45,7,1,10.16a68.37,68.37,0,0,1,1.25,9.47,11.68,11.68,0,0,0,1.07,4.2c.39,1,.72.7,1.8.68,2.52-.05,5-.32,7.53-.44A4.53,4.53,0,0,1,268,445c.72.2,1.46.4,2.14.57.41-.48.43-.43.4-1.24a8.45,8.45,0,0,0-1.34-.35c-.36-.08-.38,0-.6-.25l-.12-.13-.09-.09a9.74,9.74,0,0,0-1.13-1.1c-.29-.19-.36-.09-.64-.22s-.24-.3-.66-.28a6.78,6.78,0,0,0-1.27.47,16.64,16.64,0,0,1-3.33-.16c-.62-.08-.83-.3-.83-1,0-4.5-.53-9.19-.53-13.69a40.45,40.45,0,0,0-1.08-7.91c-.7-3.12.31-8.48.22-12a5.9,5.9,0,0,0,.7.77c.54.34.64-.06,1-.29a5.83,5.83,0,0,1,.59.85c.68,0,.84-.27,1.47,0,.26.36.33.93.71,1.19.65.44,1-.16,1.28-.45.66-.63,1.33-1.36,2-1.93,1-.84,1.42,0,3-.71a7.72,7.72,0,0,0,4.07-3.72,13.13,13.13,0,0,0,.17-9.84c1.37-2.09,2.14-3.39-.05-5.52a3.55,3.55,0,0,0-5.28,1.75,12.31,12.31,0,0,0-2.62-.61,3.61,3.61,0,0,0-2.66.48,5,5,0,0,1-.34-1c-.3-1.11-1.17-1.08-1.45-2.41-.94-4.36.74-9.78,3.12-13.36a1.71,1.71,0,0,1,1.72-.81c1.39.25,1.16,2.26,3.44,4.28.27.24.51.3.69.59A44.66,44.66,0,0,1,273,382.2c2,5.12,3.59,9.55,5.92,14.61a19.28,19.28,0,0,1,1.11,6.59,4.28,4.28,0,0,1-.43,2.14c-2.18,6.14-2.58,7.15-1.94,13.06.44,4.08,1.61,9.8,1.59,13.45,0,1.95-.34,2.22-.16,4.27a8.8,8.8,0,0,1,0,1.54c-.88.43-2,.87-2.23,1.61-.29,1.07,1.21,1.09,1.78,1.51a2,2,0,0,0,1.75.65c1.87,0,1.87-.26,2.79-1.15.66-.64,1.18-1,1.19-1.84s-.43-1.85-.13-2.73c.53-1.54-.06-3-.06-5.4a18.79,18.79,0,0,1,.62-4.65c.94-4.7,2.49-10.14,1.69-14.78-.35-2-.43-1.8.16-3.64a10.84,10.84,0,0,0,.79-3.48,49.49,49.49,0,0,0,.13-5.18c0-1.69-1.18-8.52-1.48-10.74-.73-5.21-.37-12.25-1.46-17-.46-2-.38-1.45,1.07-2.93,3.68-3.79,2.93-8.62,2.08-13.39-.72-4.05-2.92-10.07-4.09-14.38A102.12,102.12,0,0,0,279,329.61a5.44,5.44,0,0,1-.68-2.41c-.8-16.2.44-16.68-9.28-30.64-.51-.87-2-3.13-1.84-4.34.08-.61.93-.81,1.29-1.79a2.94,2.94,0,0,0-.88-3.4c-2.35-1.59-2-1-3.06-4.63-.38-1.29-1.23-5.44-1.65-6-.53-.78-2.63-2.74-3.36-1.46-1.25,2.18-.59,10.21-.1,13.3.58,3.59,1.88,5.68,3.37,8.95.33.73.72,1.39,1,2.08.43,1,1.86,5.79,2.21,6.94,1.23,4.08,3.41,10.89,3.59,14.88.1,2-.92,3.67-.61,5.23,1.56,7.93,2,16.38,3.22,24.48a4.45,4.45,0,0,1,.05,1.35c-.2,1-.44,1.39-1.5,1.59-6.6,1.23-4.54.81-10.91,2.94a18.05,18.05,0,0,0-2.08,1,35.3,35.3,0,0,0-7.72,4.59,7.53,7.53,0,0,0-2.64,3.52,47.2,47.2,0,0,0-1.88,7.35,72.56,72.56,0,0,0-.75,8.49,6.34,6.34,0,0,0,.17,2.76,22.08,22.08,0,0,0,1.54,4.63,12.33,12.33,0,0,0,1.11,2,13.54,13.54,0,0,1,2.22,3.94,5,5,0,0,1-.07,2.63c-.4,2.69-1,5.31-1.23,8s-.34,9.36-.81,11.49a15.92,15.92,0,0,1-1.54,4.62,130.69,130.69,0,0,0-5.36,13.11,17.27,17.27,0,0,0-1.12,5,2.63,2.63,0,0,0,1,2.09,6.39,6.39,0,0,0,2.84.28Z" transform="translate(-239.71 -274.47)" fill="#050505" fill-rule="evenodd"/></svg>